<?xml version="1.0" encoding="iso-8859-1"?>
<!-- Generator: Adobe Illustrator 12.0.1, SVG Export Plug-In . SVG Version: 6.00 Build 51448)  -->
<!DOCTYPE svg PUBLIC "-//W3C//DTD SVG 1.1//EN" "http://www.w3.org/Graphics/SVG/1.1/DTD/svg11.dtd" [
	<!ENTITY ns_svg "http://www.w3.org/2000/svg">
	<!ENTITY ns_xlink "http://www.w3.org/1999/xlink">
]>
<svg  version="1.1" id="Layer_1" xmlns="&ns_svg;" xmlns:xlink="&ns_xlink;" width="300" height="126.8" viewBox="0 0 300 126.8"
	 style="overflow:visible;enable-background:new 0 0 300 126.8;" xml:space="preserve">
<g>
	<path d="M99.4,73.5H126c-4.9,30.2-31,53.2-62.6,53.2C28.4,126.8,0,98.4,0,63.4S28.4,0,63.4,0C95,0,121.1,23.1,126,53.3H99.4V73.5z"
		/>
	<circle style="fill:#FFFFFF;" cx="63" cy="63.4" r="37.8"/>
</g>
<g>
	<path d="M219.4,78.8l10.3,10.3c-12.4,9-29.8,7.9-40.9-3.3c-12.4-12.4-12.4-32.4,0-44.8c12.4-12.4,32.4-12.4,44.8,0
		c11.2,11.2,12.3,28.6,3.3,41l-9.7-9.7L219.4,78.8z"/>
	<circle style="fill:#FFFFFF;" cx="211" cy="63.2" r="18.9"/>
</g>
<g>
	<path d="M286.7,54.7v-6.6c7.5,0.7,13.3,7.3,13.3,15.1c0,8.8-7.1,15.8-15.8,15.8c-8.8,0-15.8-7.1-15.8-15.8
		c0-7.9,5.8-14.4,13.3-15.6v7.1L286.7,54.7z"/>
	<circle style="fill:#FFFFFF;" cx="284.2" cy="63.3" r="9.4"/>
</g>
</svg>
